# xmcd CD database file
#
# Track frame offsets:
#	150
#	24220
#	36482
#	60922
#	83782
#	96155
#	116527
#	147325
#	178285
#	196260
#	217517
#	235832
#
# Disc length: 3420 seconds
#
# Revision: 1
# Processed by: cddbd v1.5.2PL0 Copyright (c) Steve Scherf et al.
# Submitted via: CDex 1.51
#
DISCID=980d5a0c
DTITLE=Various Artist - Putumayo Presents Mali to Memphis
DYEAR=1999
DGENRE=Blues
TTITLE0=Amadou and Mariam - Mon Amour, Ma Cherie
TTITLE1=John Lee Hooker - I'm in the Mood
TTITLE2=Habib Koité - Sirata
TTITLE3=Rokia Traoré - Sabali
TTITLE4=Guy Davis - You Don't Know My Mind
TTITLE5=Boubacar Traoré - Kar Kar Madison
TTITLE6=Eric Bibb - Don't Ever Let Nobody Drag Your Spirit Down
TTITLE7=Lobi Traoré - Dounouya
TTITLE8=Muddy Waters - My Home Is in the Delta
TTITLE9=Jessie Mae Hemphill - Standing in My Doorway Crying
TTITLE10=Baba Djan - Sabari
TTITLE11=Taj Mahal - Queen Bee
EXTD=YEAR: 1999
EXTT0=
EXTT1=
EXTT2=
EXTT3=
EXTT4=
EXTT5=
EXTT6=
EXTT7=
EXTT8=
EXTT9=
EXTT10=
EXTT11=
PLAYORDER=
